<?xml version="1.0" standalone="no"?>
<!DOCTYPE svg PUBLIC "-//W3C//DTD SVG 20010904//EN"
 "http://www.w3.org/TR/2001/REC-SVG-20010904/DTD/svg10.dtd">
<svg version="1.0" xmlns="http://www.w3.org/2000/svg"
 width="885.000000pt" height="885.000000pt" viewBox="0 0 885.000000 885.000000"
 preserveAspectRatio="xMidYMid meet">
<metadata>
Created by potrace 1.14, written by Peter Selinger 2001-2017
</metadata>
<g transform="translate(0.000000,885.000000) scale(0.100000,-0.100000)"
fill="#000000" stroke="none">
<path d="M4208 8755 c-2 -3 -40 -7 -84 -10 -110 -8 -243 -21 -254 -25 -3 -1
-8 -2 -12 -1 -4 0 -29 -3 -55 -9 -27 -5 -64 -11 -83 -14 -55 -8 -103 -17 -150
-29 -14 -4 -36 -9 -50 -11 -14 -3 -34 -7 -45 -10 -113 -25 -141 -33 -190 -52
-11 -4 -23 -7 -27 -6 -4 1 -20 -3 -35 -10 -15 -6 -31 -11 -35 -10 -4 1 -31 -8
-60 -19 -29 -12 -60 -22 -68 -24 -9 -2 -60 -20 -115 -41 -55 -20 -106 -37
-112 -37 -7 0 -13 -4 -13 -9 0 -4 -9 -8 -20 -8 -11 0 -20 -4 -20 -10 0 -5 -3
-9 -7 -8 -17 4 -333 -147 -344 -164 -3 -6 -9 -9 -13 -9 -10 2 -70 -31 -78 -43
-4 -6 -8 -7 -8 -3 0 4 -25 -8 -55 -28 -31 -19 -58 -35 -61 -35 -3 0 -20 -11
-38 -25 -18 -14 -38 -25 -44 -25 -7 0 -12 -4 -12 -10 0 -5 -6 -10 -12 -10 -11
0 -30 -14 -85 -60 -7 -6 -13 -8 -13 -6 0 8 -254 -184 -258 -195 -2 -5 -8 -9
-13 -9 -6 0 -20 -10 -33 -22 -13 -13 -40 -36 -62 -53 -46 -35 -363 -350 -420
-416 -21 -25 -57 -67 -79 -93 -22 -27 -47 -56 -55 -66 -19 -22 -48 -60 -99
-130 -23 -30 -48 -64 -57 -75 -9 -11 -21 -30 -27 -42 -5 -13 -14 -23 -19 -23
-4 0 -8 -6 -8 -14 0 -8 -3 -16 -7 -18 -11 -4 -63 -86 -63 -97 0 -6 -8 -15 -17
-20 -10 -6 -15 -11 -11 -11 4 0 -9 -24 -28 -52 -19 -29 -34 -58 -34 -65 0 -7
-4 -13 -9 -13 -9 0 -204 -382 -207 -408 -2 -8 -8 -18 -14 -22 -7 -4 -11 -10
-10 -14 1 -4 -2 -19 -8 -34 -6 -15 -14 -36 -18 -47 -4 -11 -6 -23 -6 -27 1 -5
-3 -8 -10 -8 -6 0 -9 -3 -5 -6 3 -4 0 -19 -9 -35 -8 -16 -12 -29 -8 -29 4 0 2
-6 -3 -12 -6 -7 -19 -41 -29 -75 -10 -35 -23 -63 -27 -63 -5 0 -5 -5 -2 -10 4
-6 1 -18 -6 -26 -6 -8 -9 -17 -6 -21 3 -3 0 -18 -9 -34 -8 -16 -12 -29 -8 -29
4 0 2 -6 -3 -12 -10 -13 -28 -92 -21 -94 1 0 -2 -7 -9 -15 -6 -8 -14 -32 -18
-54 -4 -22 -10 -44 -13 -50 -3 -5 -7 -21 -9 -35 -4 -29 -11 -65 -13 -65 -3 0
-19 -87 -24 -125 -2 -14 -7 -36 -11 -49 -4 -13 -9 -40 -11 -60 -2 -20 -6 -52
-8 -71 -3 -19 -8 -60 -12 -90 -3 -30 -7 -71 -10 -90 -12 -97 -17 -236 -17
-435 0 -184 7 -400 13 -400 1 0 3 -16 5 -35 6 -67 15 -145 20 -175 17 -105 27
-166 35 -205 6 -25 12 -56 14 -70 2 -14 18 -79 35 -145 17 -66 33 -131 37
-145 3 -14 8 -32 11 -40 10 -25 15 -44 16 -62 1 -10 4 -18 8 -18 5 0 18 -39
24 -75 1 -5 7 -21 13 -35 9 -21 21 -53 27 -70 1 -3 7 -18 13 -33 7 -16 12 -35
12 -43 0 -8 5 -14 12 -14 6 0 8 -3 5 -7 -4 -3 -2 -12 4 -20 6 -7 9 -13 6 -13
-3 0 8 -30 25 -68 17 -37 42 -92 56 -122 40 -88 96 -200 132 -265 19 -33 43
-77 54 -97 23 -42 164 -265 181 -286 5 -7 18 -22 27 -33 10 -10 18 -23 18 -28
0 -4 13 -24 30 -42 16 -19 30 -37 30 -41 0 -4 6 -13 13 -20 7 -7 28 -33 47
-58 19 -24 42 -52 50 -61 8 -9 22 -26 30 -37 85 -114 430 -459 545 -545 5 -4
30 -25 55 -47 25 -22 51 -40 58 -40 6 0 12 -4 12 -9 0 -5 34 -33 76 -63 42
-29 85 -61 95 -71 11 -9 23 -17 27 -17 5 0 17 -8 28 -18 36 -34 336 -210 474
-279 30 -15 58 -32 62 -38 4 -5 8 -7 8 -2 0 4 19 -3 43 -15 23 -12 44 -22 47
-23 3 0 27 -11 54 -23 27 -12 50 -22 52 -22 2 0 23 -8 47 -19 42 -19 108 -45
117 -47 3 0 13 -4 23 -7 9 -4 25 -10 35 -14 9 -3 19 -7 22 -8 3 -1 12 -4 20
-8 21 -8 211 -68 230 -72 51 -11 118 -29 138 -36 13 -5 33 -9 46 -9 12 0 26
-3 30 -7 6 -6 29 -11 66 -14 8 -1 20 -5 25 -8 6 -4 26 -8 45 -10 19 -2 37 -6
40 -10 3 -3 14 -6 25 -7 11 0 45 -4 75 -9 30 -4 67 -9 82 -10 32 -3 127 -16
148 -20 86 -16 643 -26 748 -13 27 3 42 1 42 -6 0 -7 3 -7 8 -1 8 12 9 12 92
19 36 3 81 8 100 10 19 3 53 7 75 10 22 2 51 7 65 10 14 3 43 8 65 12 68 10
78 12 135 24 30 6 66 14 80 16 14 3 70 17 125 31 55 14 108 26 118 27 9 0 17
4 17 8 0 4 8 8 18 8 9 0 76 21 147 46 72 25 137 47 145 47 8 1 17 4 20 7 3 3
59 28 125 54 66 27 127 54 135 61 8 7 24 15 35 17 11 1 26 9 33 16 8 7 17 10
22 7 5 -3 10 -2 12 2 1 5 35 24 73 43 39 19 107 56 152 82 45 26 86 48 92 48
5 0 11 4 13 8 2 4 32 26 68 47 36 21 67 41 70 44 4 5 41 31 159 111 53 36 173
131 266 211 28 24 58 50 68 58 19 16 58 53 153 142 83 78 231 240 320 349 16
19 33 40 39 46 5 6 21 26 35 44 14 19 42 55 63 82 20 26 37 52 37 57 0 5 4 11
9 13 11 4 181 262 181 276 0 6 4 12 8 14 8 3 78 126 117 203 11 22 24 43 28
46 5 3 9 9 8 12 0 7 92 208 109 239 6 10 10 25 10 33 0 8 5 15 10 15 6 0 10 6
9 13 -1 6 7 32 19 57 12 25 22 53 22 63 0 9 5 17 11 17 5 0 8 4 5 8 -2 4 4 27
14 50 11 23 16 42 13 42 -3 0 0 7 7 15 7 9 10 18 7 21 -3 3 4 26 15 50 10 25
21 53 23 62 2 9 17 67 34 127 18 61 34 123 37 139 3 16 7 33 9 37 3 4 7 24 10
44 2 21 7 47 11 59 7 21 13 58 18 106 2 14 6 34 9 45 6 19 11 51 23 146 3 24
7 68 8 96 0 29 3 53 6 53 14 0 19 618 7 760 -13 143 -15 165 -17 165 -1 0 -11
86 -13 123 -1 12 -4 22 -7 22 -3 0 -6 12 -7 28 -2 37 -12 102 -20 132 -3 14
-7 34 -8 45 -2 11 -8 43 -15 70 -6 28 -13 57 -15 65 -2 8 -9 35 -15 60 -6 25
-12 53 -13 63 -1 9 -5 17 -10 17 -5 0 -7 6 -4 14 3 7 0 19 -6 25 -6 6 -8 11
-4 11 3 0 2 12 -4 28 -6 15 -13 36 -15 47 -7 27 -10 37 -17 55 -3 8 -14 39
-23 68 -9 29 -20 55 -25 57 -4 3 -6 12 -2 20 3 8 -1 15 -8 15 -7 0 -10 3 -6 6
5 5 -10 51 -46 134 -6 14 -11 27 -12 30 -3 9 -22 54 -48 113 -15 31 -26 59
-27 62 -2 9 -112 220 -121 231 -5 6 -7 13 -4 16 3 3 -1 11 -10 18 -8 7 -15 19
-15 26 0 8 -4 14 -9 14 -5 0 -12 11 -15 25 -4 14 -11 25 -17 25 -6 0 -7 5 -4
10 3 6 1 10 -4 10 -6 0 -11 4 -11 9 0 10 -79 142 -91 151 -3 3 -12 16 -19 30
-18 34 -113 164 -122 168 -5 2 -8 10 -8 17 0 7 -4 15 -8 17 -4 2 -21 21 -37
43 -17 22 -36 44 -42 48 -7 4 -13 13 -13 18 0 6 -6 16 -12 23 -7 7 -35 39 -63
72 -159 187 -389 413 -560 549 -27 22 -52 42 -55 45 -3 3 -32 25 -65 50 -33
25 -62 48 -65 51 -6 6 -296 198 -329 217 -13 8 -38 22 -55 32 -17 9 -48 27
-68 40 -21 12 -38 18 -38 13 0 -4 -4 -3 -8 4 -8 12 -258 140 -337 171 -27 11
-67 28 -87 36 -21 9 -40 16 -43 16 -3 0 -18 6 -34 14 -16 9 -31 12 -35 9 -3
-4 -6 -2 -6 4 0 6 -12 13 -27 16 -29 5 -172 52 -208 67 -18 8 -103 32 -115 32
-3 0 -15 4 -28 9 -12 5 -33 11 -45 14 -12 2 -62 14 -110 25 -48 11 -105 23
-125 26 -20 3 -45 7 -54 10 -22 7 -57 13 -93 19 -16 2 -48 7 -70 10 -71 10
-99 14 -165 20 -36 4 -76 9 -90 12 -30 6 -626 13 -632 8z m477 -269 c61 -3
130 -8 155 -11 25 -4 65 -8 90 -10 51 -4 113 -12 150 -20 14 -3 43 -8 65 -11
63 -9 73 -11 195 -38 63 -14 149 -35 190 -46 41 -12 89 -25 105 -29 71 -19
373 -130 432 -159 10 -5 34 -16 53 -25 61 -27 233 -114 280 -141 25 -14 52
-29 60 -33 35 -16 166 -98 172 -107 5 -7 8 -7 8 -1 0 6 3 6 8 0 4 -6 31 -26
60 -44 28 -18 52 -37 52 -42 0 -5 4 -8 8 -7 10 4 82 -44 82 -54 0 -5 7 -8 15
-8 8 0 20 -9 27 -20 7 -11 17 -20 21 -20 5 0 14 -6 22 -12 23 -23 55 -48 60
-48 3 0 13 -8 24 -17 10 -10 40 -36 66 -58 136 -114 372 -350 463 -463 19 -22
42 -51 53 -64 44 -54 62 -76 104 -132 25 -32 45 -62 45 -65 0 -4 8 -16 18 -27
28 -33 62 -83 62 -93 0 -5 4 -11 8 -13 10 -3 126 -188 163 -258 13 -25 29 -48
34 -52 7 -5 7 -8 0 -8 -7 0 -7 -3 0 -8 13 -9 75 -133 75 -149 0 -7 4 -13 8
-13 5 0 19 -26 32 -57 13 -32 34 -81 47 -110 38 -86 46 -107 47 -127 1 -11 7
-21 14 -23 6 -3 12 -13 12 -23 0 -11 4 -29 9 -42 12 -30 24 -61 26 -70 2 -5 4
-10 5 -13 1 -3 3 -8 4 -12 1 -5 10 -35 20 -68 10 -33 19 -64 21 -70 1 -5 5
-17 8 -25 4 -8 8 -27 11 -42 3 -15 8 -33 11 -38 4 -6 9 -23 11 -38 7 -41 10
-54 23 -101 7 -23 10 -49 7 -57 -3 -8 -2 -14 3 -14 4 0 8 -6 8 -12 0 -7 4 -29
8 -48 12 -65 18 -105 19 -132 1 -16 4 -28 7 -28 3 0 5 -15 4 -32 -1 -18 1 -37
4 -43 6 -13 11 -58 14 -132 1 -35 4 -63 7 -63 6 0 7 -21 12 -303 2 -115 2
-210 0 -212 -4 -4 -15 -162 -15 -212 0 -18 -3 -33 -7 -33 -3 0 -6 -16 -5 -35
1 -19 -2 -35 -8 -35 -5 0 -5 -6 2 -13 6 -8 8 -17 5 -20 -4 -3 -8 -21 -11 -39
-7 -52 -11 -83 -13 -83 -1 0 -3 -9 -5 -20 -11 -75 -15 -96 -25 -143 -7 -30
-13 -61 -15 -70 -2 -9 -4 -17 -5 -17 -1 0 -3 -7 -5 -15 -2 -8 -6 -26 -9 -40
-3 -14 -7 -35 -10 -47 -4 -13 -8 -32 -10 -43 -3 -11 -7 -24 -10 -28 -3 -5 -8
-22 -11 -38 -7 -34 -10 -43 -18 -64 -3 -8 -12 -37 -20 -65 -8 -27 -22 -68 -32
-90 -9 -22 -19 -51 -21 -65 -3 -13 -10 -27 -15 -31 -6 -3 -10 -8 -8 -10 4 -7
-23 -83 -42 -116 -10 -17 -15 -34 -12 -37 4 -3 2 -6 -4 -6 -5 0 -10 -6 -10
-13 0 -21 -164 -346 -218 -432 -7 -11 -13 -24 -15 -30 -4 -14 -62 -99 -73
-106 -5 -3 -8 -9 -8 -12 1 -12 -34 -67 -42 -67 -5 0 -5 -4 -2 -10 3 -5 2 -10
-3 -10 -6 0 -22 -20 -36 -45 -15 -25 -31 -45 -36 -45 -6 0 -10 -5 -10 -11 0
-13 -89 -130 -152 -200 -13 -14 -35 -41 -49 -60 -15 -19 -72 -81 -128 -139
-55 -58 -101 -109 -101 -114 0 -5 -2 -7 -5 -4 -3 3 -29 -18 -59 -46 -103 -98
-296 -260 -361 -302 -17 -10 -39 -27 -49 -36 -11 -10 -23 -18 -27 -18 -4 0
-14 -6 -22 -14 -18 -19 -185 -126 -193 -125 -4 0 -10 -3 -13 -8 -9 -13 -175
-110 -203 -120 -10 -3 -18 -10 -18 -15 0 -5 -4 -7 -9 -4 -5 3 -20 -3 -34 -14
-14 -11 -29 -20 -34 -20 -4 0 -44 -17 -88 -39 -44 -21 -118 -53 -165 -72 -47
-19 -88 -38 -92 -44 -4 -5 -8 -6 -8 -2 0 5 -6 5 -12 0 -7 -4 -17 -8 -23 -9 -5
-2 -44 -15 -85 -29 -41 -15 -79 -28 -85 -29 -5 -2 -41 -12 -80 -24 -74 -22
-251 -70 -288 -78 -12 -2 -35 -7 -52 -10 -16 -3 -48 -9 -69 -14 -22 -5 -44 -7
-48 -4 -4 3 -8 0 -8 -6 0 -6 -4 -9 -8 -6 -4 2 -57 -3 -118 -13 -60 -10 -121
-17 -136 -16 -16 0 -28 -1 -28 -4 0 -3 -19 -7 -43 -7 -23 -1 -94 -4 -157 -8
-159 -9 -359 -11 -366 -3 -3 3 -17 2 -30 -3 -13 -5 -24 -6 -24 -2 0 4 -19 8
-42 8 -55 1 -266 20 -278 24 -3 1 -8 2 -12 2 -6 -1 -160 24 -203 33 -11 2 -38
7 -60 10 -32 5 -168 37 -255 60 -110 29 -137 37 -150 41 -8 3 -17 6 -20 6 -3
1 -40 14 -82 29 -43 15 -78 24 -78 21 0 -4 -4 -2 -8 4 -4 5 -36 20 -72 33 -36
13 -83 31 -106 42 -22 10 -46 19 -52 19 -7 0 -12 5 -12 10 0 6 -7 10 -15 10
-23 0 -332 157 -421 213 -22 13 -42 24 -46 23 -3 -1 -17 8 -30 19 -13 12 -35
27 -50 35 -16 7 -28 17 -28 22 0 4 -6 8 -12 8 -7 0 -37 18 -66 40 -29 22 -56
40 -61 40 -5 0 -11 4 -13 8 -1 4 -41 37 -88 72 -47 36 -96 74 -110 86 -94 81
-122 104 -131 104 -5 0 -9 7 -9 15 0 8 -4 15 -9 15 -10 0 -242 229 -313 309
-21 23 -38 46 -38 52 0 6 -4 7 -10 4 -5 -3 -10 0 -10 9 0 8 -3 16 -8 18 -10 4
-120 142 -163 203 -19 28 -36 52 -39 55 -17 17 -60 80 -60 88 0 6 -4 12 -8 14
-12 5 -92 134 -183 295 -12 21 -26 44 -31 51 -6 6 -7 12 -2 12 5 0 5 4 -1 8
-5 4 -28 45 -50 92 -22 47 -43 87 -47 88 -5 2 -8 12 -8 22 0 10 -4 22 -10 25
-5 3 -10 15 -10 26 0 10 -4 19 -10 19 -5 0 -10 11 -10 25 0 14 -5 25 -12 25
-6 0 -9 3 -5 6 3 4 -3 24 -13 45 -11 21 -20 45 -20 54 0 8 -5 15 -11 15 -5 0
-8 4 -5 8 3 5 -1 20 -9 35 -8 15 -12 27 -9 27 2 0 -2 14 -11 30 -9 17 -13 30
-9 30 4 0 1 7 -6 15 -7 8 -10 15 -6 15 3 0 1 12 -5 27 -22 55 -81 262 -95 333
-3 14 -9 41 -14 60 -5 19 -11 51 -14 70 -3 19 -8 46 -11 60 -8 37 -24 145 -30
200 -2 19 -4 35 -5 35 -3 0 -8 50 -11 103 -1 28 -6 52 -10 52 -4 0 -4 14 1 30
5 17 5 30 1 30 -16 0 -14 462 4 650 4 47 9 101 11 120 1 19 3 35 5 35 1 0 3
16 4 35 2 19 4 35 5 35 2 0 9 34 15 75 12 82 25 153 41 213 3 12 7 33 9 47 1
14 5 32 8 40 9 22 30 103 31 120 1 9 5 20 8 26 4 6 9 21 11 35 3 13 12 41 20
62 9 20 14 37 11 37 -3 0 -2 6 3 13 4 6 8 19 10 27 1 8 6 23 11 35 6 11 18 43
27 70 10 28 23 64 30 80 15 35 27 67 30 78 2 4 4 10 5 15 1 4 2 10 1 15 0 4 4
7 10 7 5 0 7 5 4 10 -3 6 -1 10 5 10 6 0 9 4 5 9 -3 5 -1 12 5 16 5 3 10 15
10 26 0 10 5 19 10 19 6 0 10 9 10 19 0 11 4 21 9 23 5 2 11 12 13 23 1 11 9
26 16 33 7 8 10 18 7 23 -4 5 -2 9 3 9 5 0 17 19 27 43 11 23 27 54 38 70 10
15 15 27 12 27 -3 0 4 15 17 32 29 41 67 107 75 131 3 9 9 17 14 17 5 0 9 6 9
14 0 8 3 16 8 18 4 2 31 40 60 85 29 44 71 105 93 135 21 29 47 63 56 76 9 13
24 32 32 42 9 10 30 35 46 56 17 21 41 50 55 65 14 15 41 47 60 70 37 46 308
319 316 319 3 0 18 14 34 30 16 17 32 30 35 30 3 0 13 8 23 18 38 35 83 73
131 107 27 20 51 40 53 44 2 5 17 17 34 27 17 11 84 55 150 99 66 44 139 91
163 105 23 14 48 30 55 35 6 6 39 24 71 40 33 17 62 32 65 35 11 11 110 61
110 55 0 -3 18 6 40 20 22 14 40 23 40 20 0 -3 10 1 23 9 20 13 233 104 257
111 3 0 37 12 75 25 39 13 73 25 78 26 4 1 9 2 12 3 3 0 6 0 8 -1 1 -1 12 4
25 11 13 7 32 14 43 17 10 2 27 6 37 9 160 45 201 56 222 59 14 2 32 6 40 9
28 10 132 29 275 51 17 3 41 7 55 10 13 3 52 8 85 11 33 3 76 8 95 11 19 2 96
6 169 9 74 3 136 7 137 8 3 2 145 -1 299 -7z"/>
<path d="M2771 7013 c-83 -36 -116 -53 -209 -108 -111 -65 -312 -255 -381
-360 -14 -22 -28 -42 -32 -45 -13 -12 -78 -120 -71 -120 4 0 2 -4 -3 -8 -11
-7 -65 -116 -69 -137 -1 -5 -8 -21 -16 -35 -7 -14 -13 -27 -13 -30 1 -6 -3
-20 -13 -45 -9 -25 -12 -34 -18 -63 -3 -13 -7 -31 -10 -40 -3 -9 -8 -30 -11
-47 -2 -16 -7 -41 -10 -55 -23 -111 -23 -397 0 -480 2 -8 7 -31 10 -50 3 -19
13 -60 21 -90 9 -30 18 -62 19 -72 12 -63 60 -109 119 -115 37 -5 50 -1 79 21
20 15 39 39 44 54 8 24 10 64 3 77 -1 3 -4 10 -5 15 -1 6 -4 11 -5 13 -1 1 -4
11 -6 22 -4 22 -24 102 -32 125 -13 40 -32 298 -22 313 2 2 10 92 13 140 1 15
5 27 8 27 3 0 6 6 7 13 2 36 12 77 21 95 6 12 11 30 11 41 0 12 5 21 12 21 6
0 9 3 5 6 -7 7 40 122 60 145 7 9 10 19 6 22 -3 4 -1 7 5 7 7 0 12 7 12 15 0
8 4 15 10 15 5 0 9 3 8 8 -3 7 47 83 86 132 43 53 164 168 221 210 33 25 63
49 67 55 4 5 8 6 8 2 0 -5 12 0 28 11 37 26 161 88 192 95 14 3 35 16 48 27
12 11 22 17 22 13 1 -4 8 8 16 27 29 67 6 133 -58 166 -39 20 -69 14 -177 -33z"/>
<path d="M6006 7049 c-87 -15 -128 -116 -76 -189 12 -17 32 -33 46 -36 13 -3
24 -10 24 -16 0 -5 4 -7 8 -4 5 3 48 -16 98 -41 49 -25 99 -50 111 -57 13 -6
23 -14 23 -18 0 -5 4 -8 10 -8 11 0 40 -22 82 -62 15 -14 28 -24 28 -20 0 3
32 -28 70 -69 93 -97 106 -112 119 -137 6 -11 17 -26 23 -34 7 -7 22 -31 33
-53 11 -22 26 -44 33 -48 6 -4 12 -15 12 -23 0 -8 7 -25 15 -38 16 -24 80
-205 90 -254 14 -68 25 -157 21 -169 -3 -7 -2 -13 2 -13 14 0 3 -221 -14 -292
-4 -18 -7 -41 -5 -50 1 -10 -3 -18 -9 -18 -6 0 -9 -4 -6 -9 4 -5 1 -22 -6 -38
-6 -15 -11 -31 -10 -35 1 -4 -4 -24 -11 -45 -16 -48 -15 -72 8 -110 20 -34 72
-64 101 -58 11 2 27 4 37 4 33 2 74 58 95 129 53 178 66 267 66 442 0 113 -14
275 -24 275 -1 0 -4 13 -6 30 -3 16 -9 35 -15 41 -5 6 -6 13 -4 16 7 6 -38
145 -66 205 -10 24 -19 47 -19 53 0 5 -4 10 -10 10 -5 0 -9 3 -8 8 4 17 -83
167 -107 184 -5 4 -7 8 -3 8 8 0 -12 27 -44 62 -10 10 -16 18 -13 18 13 0
-158 174 -204 208 -20 15 -47 37 -61 50 -14 12 -30 22 -36 22 -7 0 -14 7 -18
15 -3 8 -12 15 -19 15 -8 0 -19 6 -25 13 -14 16 -133 76 -227 115 -55 22 -78
27 -109 21z"/>
<path d="M2994 6601 c-54 -20 -121 -52 -174 -86 -19 -12 -37 -22 -40 -22 -7 0
-76 -60 -135 -118 -59 -58 -115 -128 -115 -144 0 -6 -4 -11 -9 -11 -5 0 -22
-26 -37 -57 -16 -32 -35 -64 -42 -71 -7 -8 -10 -18 -6 -23 3 -6 1 -15 -4 -22
-8 -10 -48 -137 -51 -162 -1 -3 -1 -6 -2 -7 -5 -18 -10 -55 -13 -113 -3 -38
-6 -72 -7 -75 -1 -3 -1 -8 -1 -11 1 -3 3 -34 6 -70 3 -35 8 -75 11 -89 3 -14
8 -38 10 -55 8 -53 44 -139 68 -161 12 -11 34 -24 48 -27 33 -8 95 9 119 33
18 18 42 84 34 92 -2 3 -6 15 -8 29 -2 13 -5 24 -6 24 -2 0 -7 20 -23 90 -17
78 -13 282 8 314 2 4 6 20 9 36 11 61 96 211 155 275 33 36 60 68 61 73 0 4 5
7 10 7 6 0 23 11 37 25 15 13 72 46 127 73 56 27 109 59 119 69 20 23 38 78
29 88 -4 4 -7 16 -7 27 0 25 -59 75 -96 81 -14 3 -48 -3 -75 -12z"/>
<path d="M5868 6615 c-2 -3 -13 -6 -24 -8 -102 -15 -123 -177 -28 -222 19 -9
35 -15 36 -14 5 4 123 -64 168 -96 25 -18 55 -44 66 -58 12 -13 26 -26 30 -28
19 -8 125 -163 130 -189 0 -3 7 -18 14 -35 7 -16 14 -32 14 -35 1 -3 5 -11 9
-17 5 -7 5 -17 2 -23 -3 -5 -1 -10 5 -10 7 0 10 -6 7 -14 -3 -8 -3 -17 1 -20
8 -8 21 -107 23 -171 1 -45 -21 -185 -30 -185 -3 0 -7 -10 -8 -23 -3 -32 -8
-51 -15 -62 -9 -14 18 -87 36 -101 9 -6 13 -14 10 -17 -3 -3 19 -8 50 -12 39
-5 61 -4 71 5 8 7 15 9 15 6 0 -4 9 1 19 11 24 23 43 66 56 127 3 16 8 33 11
38 7 11 13 47 17 100 2 24 7 49 10 56 4 6 3 13 -3 17 -7 4 -6 13 1 27 8 16 8
19 -1 13 -10 -6 -10 -3 -2 11 7 12 7 25 1 36 -7 12 -6 18 1 18 6 0 8 5 5 10
-4 6 -9 27 -11 48 -21 186 -126 422 -228 515 -10 9 -16 17 -12 17 16 0 -113
115 -183 162 -72 49 -183 105 -218 111 -10 1 -23 6 -29 10 -6 3 -13 4 -16 2z"/>
<path d="M4401 6534 c-25 -7 -57 -27 -74 -46 -32 -34 -58 -88 -51 -100 3 -5 2
-8 -3 -8 -4 0 -8 -39 -8 -87 0 -84 -1 -86 -25 -90 -68 -10 -270 -86 -278 -105
-2 -5 -10 -8 -17 -8 -8 0 -20 -6 -27 -12 -7 -7 -25 -19 -39 -26 -15 -8 -38
-25 -52 -38 -14 -13 -29 -24 -32 -24 -23 0 -235 -242 -235 -269 0 -6 -8 -15
-17 -20 -10 -6 -15 -11 -11 -11 5 0 -8 -29 -27 -65 -19 -36 -34 -66 -34 -68 0
-2 -17 -50 -28 -77 -3 -8 -7 -24 -9 -35 -1 -11 -7 -40 -13 -65 -19 -75 -21
-137 -24 -625 -3 -465 -4 -471 -27 -529 -12 -33 -27 -65 -32 -70 -4 -6 -36
-47 -71 -92 -102 -133 -111 -144 -134 -170 -13 -14 -23 -28 -23 -32 0 -4 -16
-25 -35 -47 -19 -22 -41 -47 -47 -55 -19 -22 -18 -73 2 -99 9 -13 30 -25 46
-27 24 -2 161 -5 214 -3 8 0 582 0 1275 -1 693 -1 1267 -1 1276 -1 22 1 55 31
63 57 6 19 -9 70 -24 84 -3 3 -21 25 -40 50 -19 25 -37 47 -40 50 -3 3 -21 25
-40 50 -19 25 -38 47 -42 48 -4 2 -8 10 -8 17 0 7 -4 15 -8 17 -4 2 -23 23
-42 48 -19 25 -37 47 -40 50 -9 7 -55 74 -56 80 0 3 -6 19 -13 35 -7 17 -15
39 -17 50 -5 18 -15 154 -14 183 0 13 0 26 0 75 0 17 1 53 3 80 2 26 -1 47 -6
47 -6 0 -6 5 -1 13 5 6 8 26 7 42 -4 35 -4 43 0 188 1 59 -1 107 -6 107 -4 0
-4 8 1 18 12 25 2 312 -11 312 -5 0 -6 3 -3 8 5 8 -16 102 -32 143 -6 15 -8
30 -5 33 4 3 2 6 -4 6 -5 0 -10 6 -10 13 0 19 -52 127 -89 185 -19 29 -34 55
-34 57 0 3 -8 13 -17 23 -10 10 -44 47 -75 83 -31 35 -77 80 -102 99 -26 19
-58 45 -74 57 -15 13 -33 23 -39 23 -7 0 -13 5 -13 11 0 5 -4 8 -9 5 -5 -3
-14 1 -21 9 -7 8 -19 15 -26 15 -8 0 -14 5 -14 10 0 6 -6 10 -13 10 -7 0 -45
14 -85 30 -40 17 -77 28 -82 25 -6 -3 -10 -2 -10 3 0 5 -20 13 -45 16 -25 4
-46 10 -46 14 -1 4 -3 41 -4 82 -2 103 -12 144 -41 179 -55 66 -132 89 -213
65z"/>
<path d="M3142 6156 c-61 -25 -129 -74 -180 -130 -43 -47 -103 -154 -109 -195
-3 -14 -8 -32 -13 -41 -12 -22 -10 -181 3 -232 23 -92 62 -129 137 -131 25 -1
44 6 60 21 13 12 27 22 31 22 8 0 24 56 22 80 0 8 -4 29 -9 45 -4 17 -7 59 -7
95 0 106 56 191 160 243 52 27 97 72 87 88 -3 5 0 9 5 9 16 0 5 64 -15 95 -19
28 -71 55 -105 52 -11 -1 -42 -10 -67 -21z"/>
<path d="M5670 6169 c0 -5 -6 -9 -14 -9 -18 0 -68 -59 -60 -71 3 -5 1 -9 -5
-9 -16 0 -2 -60 21 -95 12 -17 40 -39 64 -49 24 -10 44 -22 44 -28 0 -5 4 -7
9 -4 19 12 120 -132 104 -148 -4 -3 -2 -6 3 -6 14 0 16 -107 3 -131 -9 -17 -8
-20 2 -14 8 6 10 4 4 -5 -14 -22 -23 -80 -14 -86 5 -3 7 -9 4 -14 -8 -13 55
-68 86 -75 68 -15 143 39 153 110 2 17 7 38 11 48 4 9 5 24 2 32 -4 8 -2 17 2
19 12 8 -6 191 -19 191 -1 0 -3 10 -6 23 -8 45 -79 159 -124 198 -14 12 -36
32 -50 44 -55 50 -220 109 -220 79z"/>
<path d="M3973 3435 c3 -34 9 -70 15 -81 5 -10 10 -22 11 -27 0 -4 14 -33 30
-65 32 -62 99 -138 149 -168 18 -10 32 -22 32 -26 0 -4 4 -8 9 -8 5 0 26 -8
47 -17 57 -24 58 -25 194 -25 80 0 136 4 155 12 17 7 36 14 43 16 28 5 122 77
165 124 46 51 100 151 111 205 16 78 17 103 4 111 -7 4 -228 8 -491 9 l-478 1
4 -61z"/>
<path d="M4448 2304 c-2 -1 -23 -4 -46 -5 -23 -2 -42 -6 -42 -11 0 -4 -7 -5
-15 -2 -17 7 -122 -33 -143 -53 -7 -7 -17 -13 -21 -13 -12 0 -96 -88 -96 -101
0 -5 -7 -14 -15 -19 -8 -5 -11 -10 -6 -10 5 0 2 -8 -7 -18 -9 -9 -18 -28 -20
-42 -3 -14 -10 -37 -16 -52 -6 -16 -7 -28 -4 -28 4 0 2 -5 -4 -11 -6 -6 -9
-18 -6 -25 3 -8 0 -20 -5 -27 -6 -7 -7 -19 -3 -26 5 -7 5 -28 1 -47 -4 -19 -4
-37 1 -40 5 -3 5 -13 -1 -25 -6 -10 -7 -19 -3 -19 5 0 8 -12 9 -27 1 -35 9
-77 25 -128 7 -22 12 -43 11 -47 -1 -5 2 -8 8 -8 5 0 10 -6 10 -13 0 -7 9 -23
20 -35 12 -12 17 -22 13 -22 -4 0 15 -21 43 -46 41 -39 125 -91 151 -95 5 -1
13 -3 18 -4 79 -23 200 -27 275 -8 30 8 61 15 68 15 6 1 12 6 12 11 0 6 3 7 6
4 4 -4 19 2 34 13 16 11 32 20 37 20 6 0 31 22 57 50 26 27 44 50 40 50 -4 0
0 8 9 18 17 18 57 114 62 147 2 11 6 40 10 65 13 95 4 241 -19 305 -5 11 -13
34 -19 50 -6 17 -13 32 -16 35 -4 3 -13 18 -21 34 -31 61 -145 149 -208 161
-9 2 -17 4 -17 5 0 4 -43 12 -85 16 -25 2 -53 6 -62 8 -9 2 -18 2 -20 0z m68
-178 c44 -4 107 -40 138 -77 27 -32 55 -115 61 -175 2 -28 5 -55 6 -60 1 -5 1
-11 -1 -14 -1 -3 -3 -32 -5 -65 -2 -33 -6 -67 -8 -75 -2 -8 -7 -28 -12 -45 -8
-31 -37 -77 -67 -107 -30 -30 -123 -56 -189 -52 -158 10 -230 109 -232 319 -2
144 12 208 60 273 31 41 116 85 154 80 16 -3 29 -1 29 3 0 5 6 6 13 4 6 -2 30
-6 53 -9z"/>
<path d="M5409 2306 c-2 -2 -26 -6 -54 -10 -78 -9 -165 -40 -165 -58 0 -4 -6
-8 -13 -8 -19 0 -70 -66 -89 -115 -16 -41 -19 -150 -5 -172 5 -7 6 -13 2 -13
-9 0 32 -73 58 -101 23 -26 134 -85 151 -81 4 2 14 -3 22 -9 8 -6 14 -9 14 -6
0 3 15 1 33 -4 17 -5 48 -12 67 -15 19 -3 39 -9 44 -14 5 -5 15 -6 22 -3 8 3
14 0 14 -7 0 -6 4 -9 9 -6 5 3 23 -7 42 -23 27 -24 33 -37 34 -72 4 -92 -51
-137 -162 -133 -97 3 -156 28 -220 91 l-57 55 -37 -41 c-21 -23 -35 -41 -31
-41 4 0 0 -6 -8 -13 -46 -37 -45 -44 13 -101 30 -31 67 -58 81 -62 14 -3 26
-10 26 -15 0 -5 3 -8 8 -8 4 1 10 0 15 -1 4 -1 10 -3 15 -4 4 -2 27 -8 52 -16
25 -7 90 -13 145 -13 150 -1 253 40 309 121 30 44 48 90 40 103 -3 5 -1 9 4 9
9 0 8 112 -1 155 -9 41 -20 65 -30 65 -6 0 -7 3 -4 7 4 3 -6 18 -22 32 -46 43
-71 61 -71 53 0 -4 -4 -2 -8 4 -12 19 -128 52 -240 68 -12 1 -25 6 -29 9 -3 4
-15 7 -25 7 -10 0 -24 5 -31 10 -7 6 -22 18 -35 28 -18 13 -23 28 -25 64 -1
26 5 53 12 62 19 22 78 49 90 41 6 -3 11 -2 11 2 0 10 66 9 120 -1 41 -8 90
-28 90 -37 0 -4 8 -9 18 -12 9 -4 26 -13 37 -21 19 -13 23 -10 67 54 46 67 47
69 29 89 -10 12 -23 21 -29 21 -5 0 -12 6 -15 14 -7 18 -161 64 -221 65 -26 1
-52 3 -56 6 -4 2 -9 3 -11 1z"/>
<path d="M3370 2288 c-112 -29 -189 -96 -217 -187 -14 -47 -14 -161 0 -161 4
0 7 -6 5 -12 -6 -34 93 -148 129 -148 7 0 13 -4 13 -9 0 -5 28 -16 63 -25 34
-9 67 -18 72 -19 6 -2 40 -9 78 -17 37 -7 67 -18 67 -22 0 -5 5 -6 10 -3 17
10 75 -58 78 -90 5 -62 -34 -120 -88 -133 -110 -25 -224 10 -308 94 -39 38
-72 49 -72 23 0 -5 -8 -17 -17 -28 -10 -10 -30 -33 -45 -51 l-27 -33 20 -28
c68 -96 202 -152 364 -151 149 0 219 21 288 86 37 35 70 90 60 100 -4 3 -2 6
4 6 12 0 13 7 17 100 3 71 -1 89 -27 150 -15 33 -73 87 -119 111 -37 19 -128
46 -178 54 -55 8 -124 26 -151 40 -89 47 -62 176 41 192 53 9 110 9 110 0 0
-4 5 -5 10 -2 13 8 104 -24 128 -45 48 -42 55 -41 92 14 19 28 41 57 47 64 7
7 13 15 13 16 0 9 -39 46 -49 46 -6 0 -11 4 -11 8 0 11 -66 42 -123 58 -55 14
-225 16 -277 2z"/>
</g>
</svg>
